<mxfile host="app.diagrams.net" modified="2022-06-04T00:49:33.370Z" agent="5.0 (Macintosh; Intel Mac OS X 10_15_7) AppleWebKit/537.36 (KHTML, like Gecko) Chrome/100.0.4896.127 Safari/537.36" etag="V_qOXL_ospDxk2MYj9Vb" version="18.2.0" type="github" pages="2">
  <diagram name="Page-1" id="ad52d381-51e7-2e0d-a935-2d0ddd2fd229">
    <mxGraphModel dx="868" dy="1300" grid="1" gridSize="10" guides="1" tooltips="1" connect="1" arrows="1" fold="1" page="1" pageScale="1" pageWidth="1100" pageHeight="850" background="none" math="0" shadow="0">
      <root>
        <mxCell id="0" />
        <mxCell id="1" parent="0" />
        <mxCell id="y0bokvhBfqsvzistaxlt-1" value="socios&lt;br&gt;" style="rounded=0;whiteSpace=wrap;html=1;" vertex="1" parent="1">
          <mxGeometry x="370" y="200" width="120" height="60" as="geometry" />
        </mxCell>
        <mxCell id="y0bokvhBfqsvzistaxlt-2" value="libro" style="rounded=0;whiteSpace=wrap;html=1;" vertex="1" parent="1">
          <mxGeometry x="370" y="580" width="120" height="60" as="geometry" />
        </mxCell>
        <mxCell id="y0bokvhBfqsvzistaxlt-3" value="prestamo" style="rounded=0;whiteSpace=wrap;html=1;" vertex="1" parent="1">
          <mxGeometry x="710" y="380" width="120" height="60" as="geometry" />
        </mxCell>
        <mxCell id="y0bokvhBfqsvzistaxlt-4" value="telefono" style="ellipse;whiteSpace=wrap;html=1;" vertex="1" parent="1">
          <mxGeometry x="120" y="260" width="120" height="80" as="geometry" />
        </mxCell>
        <mxCell id="y0bokvhBfqsvzistaxlt-5" value="rut" style="ellipse;whiteSpace=wrap;html=1;" vertex="1" parent="1">
          <mxGeometry x="100" y="170" width="120" height="80" as="geometry" />
        </mxCell>
        <mxCell id="y0bokvhBfqsvzistaxlt-6" value="codigo Autor" style="ellipse;whiteSpace=wrap;html=1;" vertex="1" parent="1">
          <mxGeometry x="190" y="490" width="120" height="80" as="geometry" />
        </mxCell>
        <mxCell id="y0bokvhBfqsvzistaxlt-7" value="ISBN" style="ellipse;whiteSpace=wrap;html=1;" vertex="1" parent="1">
          <mxGeometry x="250" y="410" width="120" height="80" as="geometry" />
        </mxCell>
        <mxCell id="y0bokvhBfqsvzistaxlt-8" value="apellido" style="ellipse;whiteSpace=wrap;html=1;" vertex="1" parent="1">
          <mxGeometry x="340" y="40" width="120" height="80" as="geometry" />
        </mxCell>
        <mxCell id="y0bokvhBfqsvzistaxlt-9" value="nombre" style="ellipse;whiteSpace=wrap;html=1;" vertex="1" parent="1">
          <mxGeometry x="180" y="70" width="120" height="80" as="geometry" />
        </mxCell>
        <mxCell id="y0bokvhBfqsvzistaxlt-10" value="titulo" style="ellipse;whiteSpace=wrap;html=1;" vertex="1" parent="1">
          <mxGeometry x="180" y="580" width="120" height="80" as="geometry" />
        </mxCell>
        <mxCell id="y0bokvhBfqsvzistaxlt-11" value="numero de paginas" style="ellipse;whiteSpace=wrap;html=1;" vertex="1" parent="1">
          <mxGeometry x="220" y="670" width="120" height="80" as="geometry" />
        </mxCell>
        <mxCell id="y0bokvhBfqsvzistaxlt-12" value="nombre autor" style="ellipse;whiteSpace=wrap;html=1;" vertex="1" parent="1">
          <mxGeometry x="340" y="720" width="120" height="80" as="geometry" />
        </mxCell>
        <mxCell id="y0bokvhBfqsvzistaxlt-13" value="a침o nacimiento &lt;br&gt;autor" style="ellipse;whiteSpace=wrap;html=1;" vertex="1" parent="1">
          <mxGeometry x="460" y="740" width="120" height="80" as="geometry" />
        </mxCell>
        <mxCell id="y0bokvhBfqsvzistaxlt-14" value="a침o defunci칩n&amp;nbsp;&lt;br&gt;autor" style="ellipse;whiteSpace=wrap;html=1;" vertex="1" parent="1">
          <mxGeometry x="570" y="680" width="120" height="80" as="geometry" />
        </mxCell>
        <mxCell id="y0bokvhBfqsvzistaxlt-15" value="" style="endArrow=none;html=1;rounded=0;exitX=1;exitY=0;exitDx=0;exitDy=0;entryX=0;entryY=0.5;entryDx=0;entryDy=0;" edge="1" parent="1" source="y0bokvhBfqsvzistaxlt-4" target="y0bokvhBfqsvzistaxlt-1">
          <mxGeometry width="50" height="50" relative="1" as="geometry">
            <mxPoint x="330" y="230" as="sourcePoint" />
            <mxPoint x="380" y="180" as="targetPoint" />
          </mxGeometry>
        </mxCell>
        <mxCell id="y0bokvhBfqsvzistaxlt-16" value="" style="endArrow=none;html=1;rounded=0;entryX=0;entryY=0.25;entryDx=0;entryDy=0;exitX=1;exitY=0.5;exitDx=0;exitDy=0;" edge="1" parent="1" source="y0bokvhBfqsvzistaxlt-5" target="y0bokvhBfqsvzistaxlt-1">
          <mxGeometry width="50" height="50" relative="1" as="geometry">
            <mxPoint x="260" y="240" as="sourcePoint" />
            <mxPoint x="310" y="190" as="targetPoint" />
          </mxGeometry>
        </mxCell>
        <mxCell id="y0bokvhBfqsvzistaxlt-17" value="" style="endArrow=none;html=1;rounded=0;entryX=1;entryY=1;entryDx=0;entryDy=0;" edge="1" parent="1" source="y0bokvhBfqsvzistaxlt-1" target="y0bokvhBfqsvzistaxlt-9">
          <mxGeometry width="50" height="50" relative="1" as="geometry">
            <mxPoint x="260" y="240" as="sourcePoint" />
            <mxPoint x="310" y="190" as="targetPoint" />
          </mxGeometry>
        </mxCell>
        <mxCell id="y0bokvhBfqsvzistaxlt-18" value="" style="endArrow=none;html=1;rounded=0;" edge="1" parent="1" source="y0bokvhBfqsvzistaxlt-1" target="y0bokvhBfqsvzistaxlt-8">
          <mxGeometry width="50" height="50" relative="1" as="geometry">
            <mxPoint x="391.7290234283648" y="210" as="sourcePoint" />
            <mxPoint x="292.42640687119217" y="148.28427124746145" as="targetPoint" />
          </mxGeometry>
        </mxCell>
        <mxCell id="y0bokvhBfqsvzistaxlt-19" value="" style="endArrow=none;html=1;rounded=0;" edge="1" parent="1" source="y0bokvhBfqsvzistaxlt-7" target="y0bokvhBfqsvzistaxlt-2">
          <mxGeometry width="50" height="50" relative="1" as="geometry">
            <mxPoint x="330" y="500" as="sourcePoint" />
            <mxPoint x="380" y="450" as="targetPoint" />
          </mxGeometry>
        </mxCell>
        <mxCell id="y0bokvhBfqsvzistaxlt-20" value="" style="endArrow=none;html=1;rounded=0;" edge="1" parent="1" source="y0bokvhBfqsvzistaxlt-6" target="y0bokvhBfqsvzistaxlt-2">
          <mxGeometry width="50" height="50" relative="1" as="geometry">
            <mxPoint x="346.7745943077631" y="495.79646847668323" as="sourcePoint" />
            <mxPoint x="417.5" y="590" as="targetPoint" />
          </mxGeometry>
        </mxCell>
        <mxCell id="y0bokvhBfqsvzistaxlt-21" value="" style="endArrow=none;html=1;rounded=0;" edge="1" parent="1" source="y0bokvhBfqsvzistaxlt-10" target="y0bokvhBfqsvzistaxlt-2">
          <mxGeometry width="50" height="50" relative="1" as="geometry">
            <mxPoint x="356.7745943077631" y="505.79646847668323" as="sourcePoint" />
            <mxPoint x="370" y="610" as="targetPoint" />
          </mxGeometry>
        </mxCell>
        <mxCell id="y0bokvhBfqsvzistaxlt-22" value="" style="endArrow=none;html=1;rounded=0;entryX=0.25;entryY=1;entryDx=0;entryDy=0;" edge="1" parent="1" source="y0bokvhBfqsvzistaxlt-11" target="y0bokvhBfqsvzistaxlt-2">
          <mxGeometry width="50" height="50" relative="1" as="geometry">
            <mxPoint x="366.7745943077631" y="515.7964684766832" as="sourcePoint" />
            <mxPoint x="437.5" y="610" as="targetPoint" />
          </mxGeometry>
        </mxCell>
        <mxCell id="y0bokvhBfqsvzistaxlt-23" value="" style="endArrow=none;html=1;rounded=0;exitX=0.5;exitY=0;exitDx=0;exitDy=0;entryX=0.5;entryY=1;entryDx=0;entryDy=0;" edge="1" parent="1" source="y0bokvhBfqsvzistaxlt-12" target="y0bokvhBfqsvzistaxlt-2">
          <mxGeometry width="50" height="50" relative="1" as="geometry">
            <mxPoint x="376.7745943077631" y="525.7964684766832" as="sourcePoint" />
            <mxPoint x="447.5" y="620" as="targetPoint" />
          </mxGeometry>
        </mxCell>
        <mxCell id="y0bokvhBfqsvzistaxlt-24" value="" style="endArrow=none;html=1;rounded=0;exitX=0.5;exitY=0;exitDx=0;exitDy=0;entryX=0.75;entryY=1;entryDx=0;entryDy=0;" edge="1" parent="1" source="y0bokvhBfqsvzistaxlt-13" target="y0bokvhBfqsvzistaxlt-2">
          <mxGeometry width="50" height="50" relative="1" as="geometry">
            <mxPoint x="386.7745943077631" y="535.7964684766832" as="sourcePoint" />
            <mxPoint x="457.5" y="630" as="targetPoint" />
          </mxGeometry>
        </mxCell>
        <mxCell id="y0bokvhBfqsvzistaxlt-25" value="" style="endArrow=none;html=1;rounded=0;entryX=1;entryY=0.5;entryDx=0;entryDy=0;" edge="1" parent="1" source="y0bokvhBfqsvzistaxlt-14" target="y0bokvhBfqsvzistaxlt-2">
          <mxGeometry width="50" height="50" relative="1" as="geometry">
            <mxPoint x="530" y="750" as="sourcePoint" />
            <mxPoint x="470" y="650" as="targetPoint" />
          </mxGeometry>
        </mxCell>
        <mxCell id="y0bokvhBfqsvzistaxlt-26" value="fecha de inicio" style="ellipse;whiteSpace=wrap;html=1;" vertex="1" parent="1">
          <mxGeometry x="830" y="225" width="120" height="80" as="geometry" />
        </mxCell>
        <mxCell id="y0bokvhBfqsvzistaxlt-27" value="" style="endArrow=none;html=1;rounded=0;entryX=0.5;entryY=0;entryDx=0;entryDy=0;" edge="1" parent="1" source="y0bokvhBfqsvzistaxlt-26" target="y0bokvhBfqsvzistaxlt-3">
          <mxGeometry width="50" height="50" relative="1" as="geometry">
            <mxPoint x="790" y="295" as="sourcePoint" />
            <mxPoint x="750" y="155" as="targetPoint" />
          </mxGeometry>
        </mxCell>
        <mxCell id="y0bokvhBfqsvzistaxlt-28" value="fecha devoluci칩n" style="ellipse;whiteSpace=wrap;html=1;" vertex="1" parent="1">
          <mxGeometry x="920" y="420" width="110" height="70" as="geometry" />
        </mxCell>
        <mxCell id="y0bokvhBfqsvzistaxlt-29" value="" style="endArrow=none;html=1;rounded=0;entryX=1;entryY=0.5;entryDx=0;entryDy=0;" edge="1" parent="1" source="y0bokvhBfqsvzistaxlt-28" target="y0bokvhBfqsvzistaxlt-3">
          <mxGeometry width="50" height="50" relative="1" as="geometry">
            <mxPoint x="880" y="490" as="sourcePoint" />
            <mxPoint x="810" y="380" as="targetPoint" />
          </mxGeometry>
        </mxCell>
        <mxCell id="y0bokvhBfqsvzistaxlt-30" value="Pide" style="rhombus;whiteSpace=wrap;html=1;" vertex="1" parent="1">
          <mxGeometry x="570" y="270" width="70" height="70" as="geometry" />
        </mxCell>
        <mxCell id="y0bokvhBfqsvzistaxlt-31" value="" style="endArrow=none;html=1;rounded=0;entryX=1;entryY=1;entryDx=0;entryDy=0;exitX=0;exitY=0;exitDx=0;exitDy=0;" edge="1" parent="1" source="y0bokvhBfqsvzistaxlt-30" target="y0bokvhBfqsvzistaxlt-1">
          <mxGeometry width="50" height="50" relative="1" as="geometry">
            <mxPoint x="935.56539530704" y="449.6582261297708" as="sourcePoint" />
            <mxPoint x="840" y="420" as="targetPoint" />
          </mxGeometry>
        </mxCell>
        <mxCell id="y0bokvhBfqsvzistaxlt-32" value="" style="endArrow=none;html=1;rounded=0;exitX=0;exitY=0;exitDx=0;exitDy=0;" edge="1" parent="1" source="y0bokvhBfqsvzistaxlt-3" target="y0bokvhBfqsvzistaxlt-30">
          <mxGeometry width="50" height="50" relative="1" as="geometry">
            <mxPoint x="945.56539530704" y="459.6582261297708" as="sourcePoint" />
            <mxPoint x="850" y="430" as="targetPoint" />
          </mxGeometry>
        </mxCell>
        <mxCell id="y0bokvhBfqsvzistaxlt-33" value="inlcuye" style="rhombus;whiteSpace=wrap;html=1;" vertex="1" parent="1">
          <mxGeometry x="570" y="490" width="80" height="80" as="geometry" />
        </mxCell>
        <mxCell id="y0bokvhBfqsvzistaxlt-35" value="" style="endArrow=none;html=1;rounded=0;entryX=1;entryY=0;entryDx=0;entryDy=0;exitX=0;exitY=1;exitDx=0;exitDy=0;" edge="1" parent="1" source="y0bokvhBfqsvzistaxlt-33" target="y0bokvhBfqsvzistaxlt-2">
          <mxGeometry width="50" height="50" relative="1" as="geometry">
            <mxPoint x="955.56539530704" y="469.6582261297708" as="sourcePoint" />
            <mxPoint x="860" y="440" as="targetPoint" />
          </mxGeometry>
        </mxCell>
        <mxCell id="y0bokvhBfqsvzistaxlt-36" value="" style="endArrow=none;html=1;rounded=0;entryX=0.5;entryY=1;entryDx=0;entryDy=0;exitX=1;exitY=0;exitDx=0;exitDy=0;" edge="1" parent="1" source="y0bokvhBfqsvzistaxlt-33" target="y0bokvhBfqsvzistaxlt-3">
          <mxGeometry width="50" height="50" relative="1" as="geometry">
            <mxPoint x="965.56539530704" y="479.6582261297708" as="sourcePoint" />
            <mxPoint x="870" y="450" as="targetPoint" />
          </mxGeometry>
        </mxCell>
      </root>
    </mxGraphModel>
  </diagram>
  <diagram id="V5I39HcXVnxWaHtBo01-" name="Page-2">
    <mxGraphModel dx="620" dy="929" grid="1" gridSize="10" guides="1" tooltips="1" connect="1" arrows="1" fold="1" page="1" pageScale="1" pageWidth="827" pageHeight="1169" math="0" shadow="0">
      <root>
        <mxCell id="0" />
        <mxCell id="1" parent="0" />
        <mxCell id="B-OHaxMBSyAHYcLfdSVj-1" value="socio" style="swimlane;fontStyle=0;childLayout=stackLayout;horizontal=1;startSize=30;horizontalStack=0;resizeParent=1;resizeParentMax=0;resizeLast=0;collapsible=1;marginBottom=0;" vertex="1" parent="1">
          <mxGeometry x="160" y="270" width="140" height="180" as="geometry" />
        </mxCell>
        <mxCell id="B-OHaxMBSyAHYcLfdSVj-2" value="rut_socio" style="text;strokeColor=none;fillColor=none;align=left;verticalAlign=middle;spacingLeft=4;spacingRight=4;overflow=hidden;points=[[0,0.5],[1,0.5]];portConstraint=eastwest;rotatable=0;" vertex="1" parent="B-OHaxMBSyAHYcLfdSVj-1">
          <mxGeometry y="30" width="140" height="30" as="geometry" />
        </mxCell>
        <mxCell id="B-OHaxMBSyAHYcLfdSVj-3" value="nombre_socio" style="text;strokeColor=none;fillColor=none;align=left;verticalAlign=middle;spacingLeft=4;spacingRight=4;overflow=hidden;points=[[0,0.5],[1,0.5]];portConstraint=eastwest;rotatable=0;" vertex="1" parent="B-OHaxMBSyAHYcLfdSVj-1">
          <mxGeometry y="60" width="140" height="30" as="geometry" />
        </mxCell>
        <mxCell id="B-OHaxMBSyAHYcLfdSVj-7" value="apellido_socio" style="text;strokeColor=none;fillColor=none;align=left;verticalAlign=middle;spacingLeft=4;spacingRight=4;overflow=hidden;points=[[0,0.5],[1,0.5]];portConstraint=eastwest;rotatable=0;" vertex="1" parent="B-OHaxMBSyAHYcLfdSVj-1">
          <mxGeometry y="90" width="140" height="30" as="geometry" />
        </mxCell>
        <mxCell id="B-OHaxMBSyAHYcLfdSVj-9" value="direccion_socio" style="text;strokeColor=none;fillColor=none;align=left;verticalAlign=middle;spacingLeft=4;spacingRight=4;overflow=hidden;points=[[0,0.5],[1,0.5]];portConstraint=eastwest;rotatable=0;" vertex="1" parent="B-OHaxMBSyAHYcLfdSVj-1">
          <mxGeometry y="120" width="140" height="30" as="geometry" />
        </mxCell>
        <mxCell id="B-OHaxMBSyAHYcLfdSVj-4" value="telefono_socio" style="text;strokeColor=none;fillColor=none;align=left;verticalAlign=middle;spacingLeft=4;spacingRight=4;overflow=hidden;points=[[0,0.5],[1,0.5]];portConstraint=eastwest;rotatable=0;" vertex="1" parent="B-OHaxMBSyAHYcLfdSVj-1">
          <mxGeometry y="150" width="140" height="30" as="geometry" />
        </mxCell>
        <mxCell id="B-OHaxMBSyAHYcLfdSVj-10" value="prestamo" style="swimlane;fontStyle=0;childLayout=stackLayout;horizontal=1;startSize=30;horizontalStack=0;resizeParent=1;resizeParentMax=0;resizeLast=0;collapsible=1;marginBottom=0;" vertex="1" parent="1">
          <mxGeometry x="160" y="30" width="140" height="180" as="geometry" />
        </mxCell>
        <mxCell id="B-OHaxMBSyAHYcLfdSVj-11" value="id_prestamos" style="text;strokeColor=none;fillColor=none;align=left;verticalAlign=middle;spacingLeft=4;spacingRight=4;overflow=hidden;points=[[0,0.5],[1,0.5]];portConstraint=eastwest;rotatable=0;" vertex="1" parent="B-OHaxMBSyAHYcLfdSVj-10">
          <mxGeometry y="30" width="140" height="30" as="geometry" />
        </mxCell>
        <mxCell id="B-OHaxMBSyAHYcLfdSVj-12" value="fecha_prestamos" style="text;strokeColor=none;fillColor=none;align=left;verticalAlign=middle;spacingLeft=4;spacingRight=4;overflow=hidden;points=[[0,0.5],[1,0.5]];portConstraint=eastwest;rotatable=0;" vertex="1" parent="B-OHaxMBSyAHYcLfdSVj-10">
          <mxGeometry y="60" width="140" height="30" as="geometry" />
        </mxCell>
        <mxCell id="B-OHaxMBSyAHYcLfdSVj-13" value="fecha_devolucion" style="text;strokeColor=none;fillColor=none;align=left;verticalAlign=middle;spacingLeft=4;spacingRight=4;overflow=hidden;points=[[0,0.5],[1,0.5]];portConstraint=eastwest;rotatable=0;" vertex="1" parent="B-OHaxMBSyAHYcLfdSVj-10">
          <mxGeometry y="90" width="140" height="30" as="geometry" />
        </mxCell>
        <mxCell id="B-OHaxMBSyAHYcLfdSVj-14" value="rut_socio" style="text;strokeColor=none;fillColor=none;align=left;verticalAlign=middle;spacingLeft=4;spacingRight=4;overflow=hidden;points=[[0,0.5],[1,0.5]];portConstraint=eastwest;rotatable=0;" vertex="1" parent="B-OHaxMBSyAHYcLfdSVj-10">
          <mxGeometry y="120" width="140" height="30" as="geometry" />
        </mxCell>
        <mxCell id="B-OHaxMBSyAHYcLfdSVj-15" value="isbn_libro" style="text;strokeColor=none;fillColor=none;align=left;verticalAlign=middle;spacingLeft=4;spacingRight=4;overflow=hidden;points=[[0,0.5],[1,0.5]];portConstraint=eastwest;rotatable=0;" vertex="1" parent="B-OHaxMBSyAHYcLfdSVj-10">
          <mxGeometry y="150" width="140" height="30" as="geometry" />
        </mxCell>
        <mxCell id="B-OHaxMBSyAHYcLfdSVj-35" style="edgeStyle=orthogonalEdgeStyle;rounded=0;orthogonalLoop=1;jettySize=auto;html=1;" edge="1" parent="1" source="B-OHaxMBSyAHYcLfdSVj-16" target="B-OHaxMBSyAHYcLfdSVj-24">
          <mxGeometry relative="1" as="geometry" />
        </mxCell>
        <mxCell id="B-OHaxMBSyAHYcLfdSVj-16" value="libro" style="swimlane;fontStyle=0;childLayout=stackLayout;horizontal=1;startSize=30;horizontalStack=0;resizeParent=1;resizeParentMax=0;resizeLast=0;collapsible=1;marginBottom=0;" vertex="1" parent="1">
          <mxGeometry x="370" y="30" width="140" height="120" as="geometry" />
        </mxCell>
        <mxCell id="B-OHaxMBSyAHYcLfdSVj-17" value="isbn_libro" style="text;strokeColor=none;fillColor=none;align=left;verticalAlign=middle;spacingLeft=4;spacingRight=4;overflow=hidden;points=[[0,0.5],[1,0.5]];portConstraint=eastwest;rotatable=0;" vertex="1" parent="B-OHaxMBSyAHYcLfdSVj-16">
          <mxGeometry y="30" width="140" height="30" as="geometry" />
        </mxCell>
        <mxCell id="B-OHaxMBSyAHYcLfdSVj-18" value="titulo_libro" style="text;strokeColor=none;fillColor=none;align=left;verticalAlign=middle;spacingLeft=4;spacingRight=4;overflow=hidden;points=[[0,0.5],[1,0.5]];portConstraint=eastwest;rotatable=0;" vertex="1" parent="B-OHaxMBSyAHYcLfdSVj-16">
          <mxGeometry y="60" width="140" height="30" as="geometry" />
        </mxCell>
        <mxCell id="B-OHaxMBSyAHYcLfdSVj-19" value="paginas_libro" style="text;strokeColor=none;fillColor=none;align=left;verticalAlign=middle;spacingLeft=4;spacingRight=4;overflow=hidden;points=[[0,0.5],[1,0.5]];portConstraint=eastwest;rotatable=0;" vertex="1" parent="B-OHaxMBSyAHYcLfdSVj-16">
          <mxGeometry y="90" width="140" height="30" as="geometry" />
        </mxCell>
        <mxCell id="B-OHaxMBSyAHYcLfdSVj-22" value="" style="endArrow=classic;html=1;rounded=0;exitX=0.5;exitY=0;exitDx=0;exitDy=0;" edge="1" parent="1" source="B-OHaxMBSyAHYcLfdSVj-1" target="B-OHaxMBSyAHYcLfdSVj-15">
          <mxGeometry width="50" height="50" relative="1" as="geometry">
            <mxPoint x="330" y="360" as="sourcePoint" />
            <mxPoint x="380" y="310" as="targetPoint" />
          </mxGeometry>
        </mxCell>
        <mxCell id="B-OHaxMBSyAHYcLfdSVj-24" value="libro_autor" style="swimlane;fontStyle=0;childLayout=stackLayout;horizontal=1;startSize=30;horizontalStack=0;resizeParent=1;resizeParentMax=0;resizeLast=0;collapsible=1;marginBottom=0;" vertex="1" parent="1">
          <mxGeometry x="370" y="350" width="140" height="120" as="geometry" />
        </mxCell>
        <mxCell id="B-OHaxMBSyAHYcLfdSVj-25" value="isbn_libro" style="text;strokeColor=none;fillColor=none;align=left;verticalAlign=middle;spacingLeft=4;spacingRight=4;overflow=hidden;points=[[0,0.5],[1,0.5]];portConstraint=eastwest;rotatable=0;" vertex="1" parent="B-OHaxMBSyAHYcLfdSVj-24">
          <mxGeometry y="30" width="140" height="30" as="geometry" />
        </mxCell>
        <mxCell id="B-OHaxMBSyAHYcLfdSVj-26" value="codigo_autor" style="text;strokeColor=none;fillColor=none;align=left;verticalAlign=middle;spacingLeft=4;spacingRight=4;overflow=hidden;points=[[0,0.5],[1,0.5]];portConstraint=eastwest;rotatable=0;" vertex="1" parent="B-OHaxMBSyAHYcLfdSVj-24">
          <mxGeometry y="60" width="140" height="30" as="geometry" />
        </mxCell>
        <mxCell id="B-OHaxMBSyAHYcLfdSVj-27" value="tipo_autor" style="text;strokeColor=none;fillColor=none;align=left;verticalAlign=middle;spacingLeft=4;spacingRight=4;overflow=hidden;points=[[0,0.5],[1,0.5]];portConstraint=eastwest;rotatable=0;" vertex="1" parent="B-OHaxMBSyAHYcLfdSVj-24">
          <mxGeometry y="90" width="140" height="30" as="geometry" />
        </mxCell>
        <mxCell id="B-OHaxMBSyAHYcLfdSVj-28" value="autor" style="swimlane;fontStyle=0;childLayout=stackLayout;horizontal=1;startSize=30;horizontalStack=0;resizeParent=1;resizeParentMax=0;resizeLast=0;collapsible=1;marginBottom=0;" vertex="1" parent="1">
          <mxGeometry x="650" y="290" width="140" height="180" as="geometry" />
        </mxCell>
        <mxCell id="B-OHaxMBSyAHYcLfdSVj-29" value="codigo_autor" style="text;strokeColor=none;fillColor=none;align=left;verticalAlign=middle;spacingLeft=4;spacingRight=4;overflow=hidden;points=[[0,0.5],[1,0.5]];portConstraint=eastwest;rotatable=0;" vertex="1" parent="B-OHaxMBSyAHYcLfdSVj-28">
          <mxGeometry y="30" width="140" height="30" as="geometry" />
        </mxCell>
        <mxCell id="B-OHaxMBSyAHYcLfdSVj-30" value="nombre_autor" style="text;strokeColor=none;fillColor=none;align=left;verticalAlign=middle;spacingLeft=4;spacingRight=4;overflow=hidden;points=[[0,0.5],[1,0.5]];portConstraint=eastwest;rotatable=0;" vertex="1" parent="B-OHaxMBSyAHYcLfdSVj-28">
          <mxGeometry y="60" width="140" height="30" as="geometry" />
        </mxCell>
        <mxCell id="B-OHaxMBSyAHYcLfdSVj-31" value="apellido_autor" style="text;strokeColor=none;fillColor=none;align=left;verticalAlign=middle;spacingLeft=4;spacingRight=4;overflow=hidden;points=[[0,0.5],[1,0.5]];portConstraint=eastwest;rotatable=0;" vertex="1" parent="B-OHaxMBSyAHYcLfdSVj-28">
          <mxGeometry y="90" width="140" height="30" as="geometry" />
        </mxCell>
        <mxCell id="B-OHaxMBSyAHYcLfdSVj-32" value="fecha_naci_autor" style="text;strokeColor=none;fillColor=none;align=left;verticalAlign=middle;spacingLeft=4;spacingRight=4;overflow=hidden;points=[[0,0.5],[1,0.5]];portConstraint=eastwest;rotatable=0;" vertex="1" parent="B-OHaxMBSyAHYcLfdSVj-28">
          <mxGeometry y="120" width="140" height="30" as="geometry" />
        </mxCell>
        <mxCell id="B-OHaxMBSyAHYcLfdSVj-33" value="fecha_defu_autor" style="text;strokeColor=none;fillColor=none;align=left;verticalAlign=middle;spacingLeft=4;spacingRight=4;overflow=hidden;points=[[0,0.5],[1,0.5]];portConstraint=eastwest;rotatable=0;" vertex="1" parent="B-OHaxMBSyAHYcLfdSVj-28">
          <mxGeometry y="150" width="140" height="30" as="geometry" />
        </mxCell>
        <mxCell id="B-OHaxMBSyAHYcLfdSVj-34" style="edgeStyle=orthogonalEdgeStyle;rounded=0;orthogonalLoop=1;jettySize=auto;html=1;entryX=1;entryY=0.5;entryDx=0;entryDy=0;" edge="1" parent="1" source="B-OHaxMBSyAHYcLfdSVj-17" target="B-OHaxMBSyAHYcLfdSVj-11">
          <mxGeometry relative="1" as="geometry" />
        </mxCell>
        <mxCell id="B-OHaxMBSyAHYcLfdSVj-36" style="edgeStyle=orthogonalEdgeStyle;rounded=0;orthogonalLoop=1;jettySize=auto;html=1;entryX=1;entryY=0.5;entryDx=0;entryDy=0;" edge="1" parent="1" source="B-OHaxMBSyAHYcLfdSVj-31" target="B-OHaxMBSyAHYcLfdSVj-25">
          <mxGeometry relative="1" as="geometry" />
        </mxCell>
      </root>
    </mxGraphModel>
  </diagram>
</mxfile>
